{
  "extensionsUsed": [
    "KHR_materials_transmission",
    "KHR_materials_clearcoat",
    "KHR_materials_ior",
    "KHR_materials_specular",
    "KHR_materials_emissive_strength",
    "KHR_texture_transform"
  ],
  "accessors": [
    {
      "bufferView": 0,
      "componentType": 5126,
      "count": 216,
      "type": "VEC3",
      "max": [
        -0.024787253,
        0.24987645,
        0.12038521
      ],
      "min": [
        -0.064787254,
        -0.00012355934,
        -0.12961479
      ]
    },
    {
      "bufferView": 1,
      "componentType": 5125,
      "count": 420,
      "type": "SCALAR",
      "max": [
        215.0
      ],
      "min": [
        0.0
      ]
    },
    {
      "bufferView": 2,
      "componentType": 5126,
      "count": 216,
      "type": "VEC3",
      "max": [
        1.0,
        1.0,
        1.0
      ],
      "min": [
        -1.0,
        -1.0,
        -1.0
      ]
    },
    {
      "bufferView": 3,
      "componentType": 5126,
      "count": 216,
      "type": "VEC2",
      "max": [
        1.0,
        -0.0
      ],
      "min": [
        0.0,
        -1.0
      ]
    },
    {
      "bufferView": 4,
      "componentType": 5126,
      "count": 216,
      "type": "VEC3",
      "max": [
        -0.024814146,
        0.04,
        0.12038521
      ],
      "min": [
        -0.27481416,
        0.0,
        -0.12961479
      ]
    },
    {
      "bufferView": 5,
      "componentType": 5125,
      "count": 420,
      "type": "SCALAR",
      "max": [
        215.0
      ],
      "min": [
        0.0
      ]
    },
    {
      "bufferView": 6,
      "componentType": 5126,
      "count": 216,
      "type": "VEC3",
      "max": [
        1.0,
        1.0,
        1.0
      ],
      "min": [
        -1.0,
        -1.0,
        -1.0
      ]
    },
    {
      "bufferView": 7,
      "componentType": 5126,
      "count": 216,
      "type": "VEC2",
      "max": [
        1.0,
        -0.0
      ],
      "min": [
        0.0,
        -1.0
      ]
    },
    {
      "bufferView": 8,
      "componentType": 5126,
      "count": 216,
      "type": "VEC3",
      "max": [
        0.2738439,
        0.04,
        0.12038521
      ],
      "min": [
        0.023843886,
        0.0,
        -0.12961479
      ]
    },
    {
      "bufferView": 9,
      "componentType": 5125,
      "count": 420,
      "type": "SCALAR",
      "max": [
        215.0
      ],
      "min": [
        0.0
      ]
    },
    {
      "bufferView": 10,
      "componentType": 5126,
      "count": 216,
      "type": "VEC3",
      "max": [
        1.0,
        1.0,
        1.0
      ],
      "min": [
        -1.0,
        -1.0,
        -1.0
      ]
    },
    {
      "bufferView": 11,
      "componentType": 5126,
      "count": 216,
      "type": "VEC2",
      "max": [
        1.0,
        -0.0
      ],
      "min": [
        0.0,
        -1.0
      ]
    },
    {
      "bufferView": 12,
      "componentType": 5126,
      "count": 216,
      "type": "VEC3",
      "max": [
        0.3654731,
        0.24987645,
        0.12038521
      ],
      "min": [
        0.3254731,
        -0.00012355934,
        -0.12961479
      ]
    },
    {
      "bufferView": 13,
      "componentType": 5125,
      "count": 420,
      "type": "SCALAR",
      "max": [
        215.0
      ],
      "min": [
        0.0
      ]
    },
    {
      "bufferView": 14,
      "componentType": 5126,
      "count": 216,
      "type": "VEC3",
      "max": [
        1.0,
        1.0,
        1.0
      ],
      "min": [
        -1.0,
        -1.0,
        -1.0
      ]
    },
    {
      "bufferView": 15,
      "componentType": 5126,
      "count": 216,
      "type": "VEC2",
      "max": [
        1.0,
        -0.0
      ],
      "min": [
        0.0,
        -1.0
      ]
    }
  ],
  "asset": {
    "version": "2.0"
  },
  "buffers": [
    {
      "uri": "data:application/octet-stream;base64,",
      "byteLength": 2592
    },
    {
      "uri": "data:application/octet-stream;base64,",
      "byteLength": 1680
    },
    {
      "uri": "data:application/octet-stream;base64,",
      "byteLength": 2592
    },
    {
      "uri": "data:application/octet-stream;base64,",
      "byteLength": 1728
    },
    {
      "uri": "data:application/octet-stream;base64,",
      "byteLength": 2592
    },
    {
      "uri": "data:application/octet-stream;base64,",
      "byteLength": 1680
    },
    {
      "uri": "data:application/octet-stream;base64,",
      "byteLength": 2592
    },
    {
      "uri": "data:application/octet-stream;base64,",
      "byteLength": 1728
    },
    {
      "uri": "data:application/octet-stream;base64,",
      "byteLength": 2592
    },
    {
      "uri": "data:application/octet-stream;base64,",
      "byteLength": 1680
    },
    {
      "uri": "data:application/octet-stream;base64,",
      "byteLength": 2592
    },
    {
      "uri": "data:application/octet-stream;base64,",
      "byteLength": 1728
    },
    {
      "uri": "data:application/octet-stream;base64,",
      "byteLength": 2592
    },
    {
      "uri": "data:application/octet-stream;base64,",
      "byteLength": 1680
    },
    {
      "uri": "data:application/octet-stream;base64,",
      "byteLength": 2592
    },
    {
      "uri": "data:application/octet-stream;base64,",
      "byteLength": 1728
    }
  ],
  "bufferViews": [
    {
      "buffer": 0,
      "byteLength": 2592,
      "target": 34962
    },
    {
      "buffer": 1,
      "byteLength": 1680,
      "target": 34963
    },
    {
      "buffer": 2,
      "byteLength": 2592,
      "target": 34962
    },
    {
      "buffer": 3,
      "byteLength": 1728,
      "target": 34962
    },
    {
      "buffer": 4,
      "byteLength": 2592,
      "target": 34962
    },
    {
      "buffer": 5,
      "byteLength": 1680,
      "target": 34963
    },
    {
      "buffer": 6,
      "byteLength": 2592,
      "target": 34962
    },
    {
      "buffer": 7,
      "byteLength": 1728,
      "target": 34962
    },
    {
      "buffer": 8,
      "byteLength": 2592,
      "target": 34962
    },
    {
      "buffer": 9,
      "byteLength": 1680,
      "target": 34963
    },
    {
      "buffer": 10,
      "byteLength": 2592,
      "target": 34962
    },
    {
      "buffer": 11,
      "byteLength": 1728,
      "target": 34962
    },
    {
      "buffer": 12,
      "byteLength": 2592,
      "target": 34962
    },
    {
      "buffer": 13,
      "byteLength": 1680,
      "target": 34963
    },
    {
      "buffer": 14,
      "byteLength": 2592,
      "target": 34962
    },
    {
      "buffer": 15,
      "byteLength": 1728,
      "target": 34962
    }
  ],
  "materials": [
    {
      "name": "Paint",
      "extensions": {
        "KHR_materials_transmission": {},
        "KHR_materials_clearcoat": {},
        "KHR_materials_ior": {
          "ior": 1.0
        },
        "KHR_materials_specular": {
          "specularFactor": 0.5,
          "specularColorFactor": [
            1.0,
            1.0,
            1.0
          ]
        }
      },
      "pbrMetallicRoughness": {
        "baseColorFactor": [
          0.68703085,
          0.32038158,
          0.08464151,
          1.0
        ],
        "metallicFactor": 0.0,
        "roughnessFactor": 0.75
      }
    },
    {
      "name": "Paint (1)",
      "extensions": {
        "KHR_materials_transmission": {},
        "KHR_materials_clearcoat": {},
        "KHR_materials_ior": {
          "ior": 1.0
        },
        "KHR_materials_specular": {
          "specularFactor": 0.5,
          "specularColorFactor": [
            1.0,
            1.0,
            1.0
          ]
        }
      },
      "pbrMetallicRoughness": {
        "baseColorFactor": [
          0.8122415,
          0.57315886,
          0.35865393,
          1.0
        ],
        "metallicFactor": 0.0,
        "roughnessFactor": 0.75
      }
    }
  ],
  "meshes": [
    {
      "primitives": [
        {
          "attributes": {
            "POSITION": 0,
            "NORMAL": 2,
            "TEXCOORD_0": 3
          },
          "indices": 1,
          "material": 0
        }
      ]
    },
    {
      "primitives": [
        {
          "attributes": {
            "POSITION": 4,
            "NORMAL": 6,
            "TEXCOORD_0": 7
          },
          "indices": 5,
          "material": 1
        }
      ]
    },
    {
      "primitives": [
        {
          "attributes": {
            "POSITION": 8,
            "NORMAL": 10,
            "TEXCOORD_0": 11
          },
          "indices": 9,
          "material": 1
        }
      ]
    },
    {
      "primitives": [
        {
          "attributes": {
            "POSITION": 12,
            "NORMAL": 14,
            "TEXCOORD_0": 15
          },
          "indices": 13,
          "material": 0
        }
      ]
    }
  ],
  "nodes": [
    {
      "mesh": 0
    },
    {
      "mesh": 1
    },
    {
      "mesh": 2
    },
    {
      "mesh": 3
    }
  ],
  "samplers": [
    {
      "magFilter": 9729,
      "minFilter": 9729
    }
  ],
  "scene": 0,
  "scenes": [
    {
      "nodes": [
        0,
        1,
        2,
        3
      ],
      "extensions": {}
    }
  ],
  "extensions": {}
}