{
  "extensionsUsed": [
    "KHR_materials_transmission",
    "KHR_materials_clearcoat",
    "KHR_materials_ior",
    "KHR_materials_specular",
    "KHR_materials_emissive_strength",
    "KHR_texture_transform"
  ],
  "accessors": [
    {
      "bufferView": 0,
      "componentType": 5126,
      "count": 264,
      "type": "VEC3",
      "max": [
        0.013749089,
        0.02,
        0.025725594
      ],
      "min": [
        -0.10625091,
        0.0,
        -0.074274406
      ]
    },
    {
      "bufferView": 1,
      "componentType": 5125,
      "count": 516,
      "type": "SCALAR",
      "max": [
        263.0
      ],
      "min": [
        0.0
      ]
    },
    {
      "bufferView": 2,
      "componentType": 5126,
      "count": 264,
      "type": "VEC3",
      "max": [
        1.0,
        1.0,
        1.0
      ],
      "min": [
        -1.0,
        -1.0,
        -1.0
      ]
    },
    {
      "bufferView": 3,
      "componentType": 5126,
      "count": 264,
      "type": "VEC2",
      "max": [
        1.0,
        -0.0
      ],
      "min": [
        0.0,
        -1.0
      ]
    },
    {
      "bufferView": 4,
      "componentType": 5126,
      "count": 264,
      "type": "VEC3",
      "max": [
        0.11374909,
        0.0611592,
        0.025725594
      ],
      "min": [
        -0.006250911,
        0.0411592,
        -0.074274406
      ]
    },
    {
      "bufferView": 5,
      "componentType": 5125,
      "count": 516,
      "type": "SCALAR",
      "max": [
        263.0
      ],
      "min": [
        0.0
      ]
    },
    {
      "bufferView": 6,
      "componentType": 5126,
      "count": 264,
      "type": "VEC3",
      "max": [
        1.0,
        1.0,
        1.0
      ],
      "min": [
        -1.0,
        -1.0,
        -1.0
      ]
    },
    {
      "bufferView": 7,
      "componentType": 5126,
      "count": 264,
      "type": "VEC2",
      "max": [
        1.0,
        -0.0
      ],
      "min": [
        0.0,
        -1.0
      ]
    }
  ],
  "asset": {
    "version": "2.0"
  },
  "buffers": [
    {
      "uri": "data:application/octet-stream;base64,",
      "byteLength": 3168
    },
    {
      "uri": "data:application/octet-stream;base64,",
      "byteLength": 2064
    },
    {
      "uri": "data:application/octet-stream;base64,",
      "byteLength": 3168
    },
    {
      "uri": "data:application/octet-stream;base64,",
      "byteLength": 2112
    },
    {
      "uri": "data:application/octet-stream;base64,",
      "byteLength": 3168
    },
    {
      "uri": "data:application/octet-stream;base64,",
      "byteLength": 2064
    },
    {
      "uri": "data:application/octet-stream;base64,",
      "byteLength": 3168
    },
    {
      "uri": "data:application/octet-stream;base64,",
      "byteLength": 2112
    }
  ],
  "bufferViews": [
    {
      "buffer": 0,
      "byteLength": 3168,
      "target": 34962
    },
    {
      "buffer": 1,
      "byteLength": 2064,
      "target": 34963
    },
    {
      "buffer": 2,
      "byteLength": 3168,
      "target": 34962
    },
    {
      "buffer": 3,
      "byteLength": 2112,
      "target": 34962
    },
    {
      "buffer": 4,
      "byteLength": 3168,
      "target": 34962
    },
    {
      "buffer": 5,
      "byteLength": 2064,
      "target": 34963
    },
    {
      "buffer": 6,
      "byteLength": 3168,
      "target": 34962
    },
    {
      "buffer": 7,
      "byteLength": 2112,
      "target": 34962
    }
  ],
  "materials": [
    {
      "name": "Paint (1)",
      "extensions": {
        "KHR_materials_transmission": {},
        "KHR_materials_clearcoat": {},
        "KHR_materials_ior": {
          "ior": 1.0
        },
        "KHR_materials_specular": {
          "specularFactor": 0.5,
          "specularColorFactor": [
            1.0,
            1.0,
            1.0
          ]
        }
      },
      "pbrMetallicRoughness": {
        "baseColorFactor": [
          0.8122415,
          0.57315886,
          0.35865393,
          1.0
        ],
        "metallicFactor": 0.0,
        "roughnessFactor": 0.75
      }
    },
    {
      "name": "Paint",
      "extensions": {
        "KHR_materials_transmission": {},
        "KHR_materials_clearcoat": {},
        "KHR_materials_ior": {
          "ior": 1.0
        },
        "KHR_materials_specular": {
          "specularFactor": 0.5,
          "specularColorFactor": [
            1.0,
            1.0,
            1.0
          ]
        }
      },
      "pbrMetallicRoughness": {
        "baseColorFactor": [
          0.68703085,
          0.32038158,
          0.08464151,
          1.0
        ],
        "metallicFactor": 0.0,
        "roughnessFactor": 0.75
      }
    }
  ],
  "meshes": [
    {
      "primitives": [
        {
          "attributes": {
            "POSITION": 0,
            "NORMAL": 2,
            "TEXCOORD_0": 3
          },
          "indices": 1,
          "material": 0
        }
      ]
    },
    {
      "primitives": [
        {
          "attributes": {
            "POSITION": 4,
            "NORMAL": 6,
            "TEXCOORD_0": 7
          },
          "indices": 5,
          "material": 1
        }
      ]
    }
  ],
  "nodes": [
    {
      "mesh": 0
    },
    {
      "mesh": 1
    }
  ],
  "samplers": [
    {
      "magFilter": 9729,
      "minFilter": 9729
    }
  ],
  "scene": 0,
  "scenes": [
    {
      "nodes": [
        0,
        1
      ],
      "extensions": {}
    }
  ],
  "extensions": {}
}